<?xml version="1.0" encoding="utf-8"?>
<!-- Generator: Adobe Illustrator 23.0.1, SVG Export Plug-In . SVG Version: 6.00 Build 0)  -->
<svg version="1.1" id="Layer_1" xmlns="http://www.w3.org/2000/svg" xmlns:xlink="http://www.w3.org/1999/xlink" x="0px" y="0px"
	 viewBox="0 0 31.88 32" style="enable-background:new 0 0 31.88 32;" xml:space="preserve">
<style type="text/css">
	.st0{fill-rule:evenodd;clip-rule:evenodd;fill:url(#SVGID_1_);}
	.st1{fill:#FFFFFF;}
</style>
<linearGradient id="SVGID_1_" gradientUnits="userSpaceOnUse" x1="5.8445" y1="32.3331" x2="42.1582" y2="6.0455" gradientTransform="matrix(1 0 0 -1 0 34)">
	<stop  offset="0" style="stop-color:#41D1FF"/>
	<stop  offset="1" style="stop-color:#BD34FE"/>
</linearGradient>
<path class="st0" d="M31.51,6.22L16.9,29.41c-0.23,0.36-0.75,0.36-0.97,0L0.38,6.22C0.13,5.82,0.44,5.3,0.91,5.39l15.25,2.96
	c0.08,0.02,0.17,0.02,0.25,0l14.71-2.96C31.6,5.3,31.76,5.82,31.51,6.22z"/>
<path class="st1" d="M21.64,0.41L11.99,1.67c-0.16,0.02-0.29,0.14-0.32,0.3l-1.68,9.37c-0.04,0.23,0.17,0.42,0.4,0.36l2.76-0.68
	c0.23-0.06,0.45,0.13,0.41,0.37l-1.25,6.04c-0.04,0.24,0.2,0.43,0.43,0.35l1.7-0.57c0.23-0.08,0.47,0.12,0.43,0.35l-1.98,9.59
	c-0.06,0.3,0.36,0.45,0.52,0.19l0.11-0.18l6.1-12.17c0.1-0.2-0.05-0.43-0.28-0.42l-2.78,0.09c-0.24,0.01-0.41-0.22-0.33-0.45
	l1.78-5.33c0.08-0.23,0.35-0.33,0.54-0.2c0.03,0.02,3.07,2.38,3.07,2.38c0.02,0.01,0.04,0.03,0.05,0.05
	C22.16,0.61,21.9,0.38,21.64,0.41z"/>
</svg>